<svg xmlns="http://www.w3.org/2000/svg" enable-background="new 0 0 512 512" viewBox="0 0 512 512" id="plumber"><path fill="#e2887d" d="M432.9,469.9V500c0,6-4.9,10.9-10.9,10.9H10.9C4.9,510.9,0,506,0,500v-30.2c0-79.7,64.6-144.4,144.4-144.4
		h144.1C368.3,325.5,432.9,390.1,432.9,469.9z"></path><rect width="108.2" height="78" x="162.4" y="286.2" fill="#f4dfd7"></rect><path fill="#f4dfd7" d="M322.3,157.7v-26.9H110.7v26.9c-11.8,0-21.2,9.4-21.2,21.2c0,11.6,9.4,21.1,21.2,21.1l1.9,14.8
		c6.7,52.3,51.2,91.4,103.9,91.4c26.4,0,50.7-9.7,69.2-26.1c18.6-16.3,31.4-39.2,34.8-65.3l1.9-14.8c11.7,0,21.1-9.5,21.1-21.1
		C343.4,167.1,334,157.7,322.3,157.7z"></path><path fill="#e5cac3" d="M180.8 253.5c-2.2-2.1-2.3-5.5-.2-7.7 2.1-2.2 5.5-2.3 7.7-.2 15.8 15 40.4 15 56.2 0 2.2-2.1 5.6-2 7.7.2 2.1 2.2 2 5.6-.2 7.7C232 272.5 200.7 272.5 180.8 253.5zM265.6 180.3c-1.8-4.2-7.8-4.3-9.6 0-1.2 2.8-4.4 4.1-7.1 2.9-2.8-1.2-4.1-4.3-2.9-7.1 5.5-13.2 24.3-13.1 29.7 0 1.2 2.8-.2 6-2.9 7.1C270 184.4 266.8 183.2 265.6 180.3zM177 180.3c-1.8-4.2-7.8-4.3-9.6 0-1.2 2.8-4.4 4.1-7.1 2.9-2.8-1.2-4.1-4.3-2.9-7.1 5.5-13.2 24.3-13.1 29.7 0 1.2 2.8-.2 6-2.9 7.1C181.4 184.4 178.2 183.2 177 180.3z"></path><path fill="#fff" d="M302.7 332.2L269.5 379c-3.7 5.2-10.7 6.9-16.3 4L222 367l-5.4-2.8 3.9-3.9 35.7-35.7c6.7-6.7 16-10.1 25.4-9.3l14.1 1.3C303.1 317.4 307.1 326.1 302.7 332.2zM216.5 364.2l-5.4 2.8-31.2 16c-5.7 2.9-12.6 1.2-16.3-4l-33.3-46.8c-4.4-6.2-.4-14.8 7.2-15.5l14-1.3c9.4-.9 18.7 2.6 25.4 9.2L216.5 364.2z"></path><path fill="#b0bfc6" d="M332.9,132.2V86c0-32.5-21.8-60.9-53.1-69.5L229.4,2.8c-8.4-2.3-17.3-2.3-25.7,0l-50.6,13.7
		C121.8,25,100,53.5,100,86v46.1H332.9z"></path><path fill="#d1dfe8" d="M344.2 136.4c4.8 2.9 5.7 9.7 1.4 13.3-6.3 5.2-14.2 8-22.3 8-5 0-10-1.1-14.8-3.3-58.2-27.5-125.8-27.5-184.1 0-12.3 5.8-26.5 3.8-36.6-4.3-4.5-3.6-3.9-10.7 1-13.6C167 89.6 264.9 88.9 344.2 136.4zM221.9 364.2v146.7H211V364.2c0-1.5.6-2.8 1.6-3.9l3.9 3.9 3.9-3.9C221.3 361.4 221.9 362.7 221.9 364.2zM236.2 397.5h-4.4c-3 0-5.4-2.4-5.4-5.4 0-3 2.4-5.4 5.4-5.4h4.4c3 0 5.4 2.4 5.4 5.4C241.6 395 239.2 397.5 236.2 397.5zM236.1 420.7h-4.4c-3 0-5.4-2.4-5.4-5.4 0-3 2.4-5.4 5.4-5.4h4.4c3 0 5.4 2.4 5.4 5.4C241.6 418.2 239.1 420.7 236.1 420.7zM236.1 443.9h-4.4c-3 0-5.4-2.4-5.4-5.4 0-3 2.4-5.4 5.4-5.4h4.4c3 0 5.4 2.4 5.4 5.4C241.6 441.4 239.1 443.9 236.1 443.9zM236.1 467.1h-4.4c-3 0-5.4-2.4-5.4-5.4s2.4-5.4 5.4-5.4h4.4c3 0 5.4 2.4 5.4 5.4S239.1 467.1 236.1 467.1zM236.1 490.3h-4.4c-3 0-5.4-2.4-5.4-5.4 0-3 2.4-5.4 5.4-5.4h4.4c3 0 5.4 2.4 5.4 5.4C241.6 487.9 239.1 490.3 236.1 490.3zM345.4 495c4.7-6 12-9.3 19.6-9.3l57.1 0c7.6 0 15 3.3 19.6 9.3 7.5 9.7 19.3 15.9 32.5 15.9 17.1 0 31.6-10.4 37.8-25.2h-20.1c-8.7 0-15.8-7.1-15.8-15.8v0c0-8.7 7.1-15.8 15.8-15.8H512c-5.5-13.1-17.7-22.9-32.2-24.9-15.4-2.1-29.5 4.4-38 15.4-4.7 6-12.1 9.5-19.8 9.5l-57.1 0c-7.7 0-15-3.4-19.8-9.5-8.6-11-22.7-17.5-38-15.4-14.5 1.9-26.6 11.8-32.2 24.9l20.2 0c8.7 0 15.8 7.1 15.8 15.8v0c0 8.7-7.1 15.8-15.8 15.8H275c6.2 14.8 20.8 25.2 37.8 25.2C326.1 510.9 337.8 504.7 345.4 495z"></path></svg>