<svg xmlns="http://www.w3.org/2000/svg" data-name="Layer 1" viewBox="0 0 512 512" id="plumber"><path fill="#57aafe" d="M64.44 501.999V358.702a80 80 0 0 1 43.484-71.18l80.022-41.052a80 80 0 0 1 36.516-8.82h63.076a80 80 0 0 1 36.516 8.82l80.022 41.052a80 80 0 0 1 43.484 71.18v143.297a10 10 0 0 1-10 10H74.44a10 10 0 0 1-10-10Z"></path><path fill="#f9beac" d="m306.245 273.36-50.244 38.519-50.799-38.519v-67.563h101.043v67.563z"></path><path fill="#e58a7b" fill-rule="evenodd" d="M306.245 205.797h-4.41a19.058 19.058 0 0 1-16.293 0h-60.04a19.06 19.06 0 0 1-16.29 0h-4.01v40.504a61.41 61.41 0 0 0 18.158 11.328l31.337 12.61a5.998 5.998 0 0 0 4.48 0l31.337-12.61a61.461 61.461 0 0 0 15.73-9.248Z"></path><path fill="#f2f2f2" d="m483.725 352.746-31.222 54.079a13.491 13.491 0 0 1-11.744 6.745l-31.29-.139a14.93 14.93 0 0 0-12.996 7.465l-45.199 78.286A18.627 18.627 0 0 1 325.83 506a18.627 18.627 0 0 1-6.818-25.445l49.53-85.79 32.697-56.632a28.588 28.588 0 0 1 39.052-10.464Z"></path><path fill="#adb9d6" d="m457.604 397.987-30.632-17.685a4 4 0 0 1-1.464-5.464l10.503-18.19a4 4 0 0 1 5.464-1.465l30.632 17.685-14.503 25.119ZM505.049 315.812l-21.324 36.934-25.118-14.503 17.568-30.43a4.233 4.233 0 0 0-1.55-5.782l-27.546-15.904a3.958 3.958 0 0 1-1.449-5.408 25.046 25.046 0 0 1 34.214-9.167l15.788 9.115a25.728 25.728 0 0 1 9.417 35.145Z"></path><path fill="#dbe6fc" d="M270.411 511.999v-215.29l-14.41 15.17-14.41-15.17v215.29h28.82z"></path><path fill="#dbe6fc" d="m256 311.883 47.343-29.275a8.65 8.65 0 0 1 10.58 1.021l12.392 10.829a4 4 0 0 0 6.588-3.603l-6.353-42.592a15.102 15.102 0 0 0-4.105-8.559l-7.649-7.498c-4.766-4.672-11.53-3.391-15.086 2.858ZM256 311.883l-47.343-29.275a8.65 8.65 0 0 0-10.58 1.021l-12.392 10.829a4 4 0 0 1-6.588-3.603l6.353-42.592a15.102 15.102 0 0 1 4.105-8.559l7.649-7.498c4.766-4.672 11.53-3.391 15.086 2.858Z"></path><path fill="#f9beac" d="M209.492 219.225a64.238 64.238 0 0 1-24.686-50.618v-66.434A31.873 31.873 0 0 1 216.679 70.3h80.513a31.873 31.873 0 0 1 31.873 31.873v66.433a64.238 64.238 0 0 1-24.686 50.618l-20.794 16.249a43.282 43.282 0 0 1-26.65 9.177 43.283 43.283 0 0 1-26.65-9.177Z"></path><path fill="#adb9d6" fill-rule="evenodd" d="m197.204 232.206-2.24 2.195a61.447 61.447 0 0 0 28.396 23.228l2.295.924-13.364-23.489c-3.556-6.25-10.32-7.53-15.087-2.858zm93.31 25.422a61.443 61.443 0 0 0 27.65-22.121l-3.368-3.3c-4.766-4.673-11.53-3.392-15.087 2.857l-13.92 24.466z"></path><path fill="#343c4a" fill-rule="evenodd" d="m184.81 156.679 16.075 27.5a19.093 19.093 0 0 0 25.893 6.977l9.674-5.479a14.383 14.383 0 0 1 7.088-1.868h23.96a14.383 14.383 0 0 1 7.087 1.867l9.683 5.483a19.093 19.093 0 0 0 25.893-6.982l18.902-32.347v34.728a61.518 61.518 0 0 1-38.551 57.07l-31.337 12.612a6 6 0 0 1-4.48 0l-31.337-12.61a61.518 61.518 0 0 1-38.552-57.075Z"></path><path fill="#e58a7b" d="M329.064 161.606v-44.872a19.63 19.63 0 0 1 19.3 23.219l-1.234 6.638a18.375 18.375 0 0 1-18.066 15.015zm-144.258 0v-44.872a19.63 19.63 0 0 0-19.3 23.219l1.234 6.638a18.375 18.375 0 0 0 18.066 15.015zm83.096 10.46v5.432A11.902 11.902 0 0 1 256 189.4a11.902 11.902 0 0 1-11.902-11.902v-5.433a3 3 0 0 1 3-3h17.804a3 3 0 0 1 3 3z"></path><path fill="#343c4a" d="M329.1 145.3h-4a10 10 0 0 1-10-10v-31l14-7zm-144.294 0h4a10 10 0 0 0 10-10v-38h-14z"></path><path fill="#dbe6fc" d="M214.412 3.499h85.051a31.19 31.19 0 0 1 31.191 31.191v60.488H183.221V34.69a31.19 31.19 0 0 1 31.191-31.191Z"></path><path fill="#57aafe" d="m306.589 117.809-29.35-6.318a96.474 96.474 0 0 0-40.603 0l-29.35 6.318a18.335 18.335 0 0 1-20.6-10.45l-3.861-8.65a8.744 8.744 0 0 1 5.3-11.896 225.216 225.216 0 0 1 70.438-10.782c23.447.169 51.938 7.08 66.608 11.112a8.753 8.753 0 0 1 5.683 12.008l-3.664 8.207a18.335 18.335 0 0 1-20.601 10.45Z"></path><path d="M256 378.703a4.184 4.184 0 1 0 4.184 4.184 4.184 4.184 0 0 0-4.183-4.184Zm0 110.305a4.184 4.184 0 1 0 4.184 4.183 4.184 4.184 0 0 0-4.183-4.183Zm0-68.469a4.184 4.184 0 1 0 4.184 4.184 4.184 4.184 0 0 0-4.183-4.184Zm-113.88 11.287a3.5 3.5 0 0 0-3.5 3.5V508.5a3.5 3.5 0 0 0 7 0v-73.174a3.5 3.5 0 0 0-3.5-3.5ZM256 454.008a4.184 4.184 0 1 0 4.184 4.183 4.184 4.184 0 0 0-4.183-4.183Zm0-117.14a4.184 4.184 0 1 0 4.184 4.183 4.184 4.184 0 0 0-4.183-4.184Zm-19.123-207.6a35.22 35.22 0 0 0-26.788 0 3.5 3.5 0 1 0 2.658 6.475 28.162 28.162 0 0 1 10.022-2.113 28.641 28.641 0 0 1 11.454 2.114 3.5 3.5 0 1 0 2.654-6.477Zm260.505 148.369-15.788-9.116a28.578 28.578 0 0 0-38.995 10.45 7.458 7.458 0 0 0 2.73 10.188l27.547 15.904a.735.735 0 0 1 .268 1.002l-15.819 27.398-12.967-7.486a83.564 83.564 0 0 0-38.68-41.571l-76.188-39.08a17.943 17.943 0 0 0-4.59-8.116l-7.647-7.497c-.184-.18-.379-.337-.568-.505a64.793 64.793 0 0 0 15.875-42.648v-21.746a21.875 21.875 0 0 0 18.011-17.582l1.235-6.638a23.124 23.124 0 0 0-19.246-27.09v-9.587l1.49-3.338a12.219 12.219 0 0 0 .1-9.707V34.69A34.73 34.73 0 0 0 299.46 0h-85.05a34.73 34.73 0 0 0-34.69 34.69v55.27c-.029.06-.064.116-.091.177a12.279 12.279 0 0 0-.001 10l1.682 3.767v9.6a23.125 23.125 0 0 0-19.246 27.09l1.235 6.637a21.875 21.875 0 0 0 18.01 17.583v21.746a64.81 64.81 0 0 0 15.106 41.747 14.539 14.539 0 0 0-1.665 1.403l-7.651 7.502a17.935 17.935 0 0 0-4.589 8.114l-76.189 39.08a83.182 83.182 0 0 0-45.38 74.294v149.8a3.5 3.5 0 1 0 7 0V358.7a76.208 76.208 0 0 1 41.577-68.066l71.547-36.7-5.427 36.409a7.5 7.5 0 0 0 12.356 6.752l12.392-10.832a5.168 5.168 0 0 1 6.433-.676l31.27 19.334V508.5a3.5 3.5 0 0 0 7 0V309.25l9.07 5.607a3.47 3.47 0 0 0 .505.253c.046.02.094.034.142.051a3.532 3.532 0 0 0 .445.13c.053.012.106.024.16.033a3.514 3.514 0 0 0 .588.056h.002a3.509 3.509 0 0 0 .588-.056c.054-.01.107-.021.16-.033a3.54 3.54 0 0 0 .445-.13c.048-.017.096-.031.142-.05a3.483 3.483 0 0 0 .505-.254l9.07-5.607V508.5a3.5 3.5 0 0 0 7 0V304.921l31.267-19.333a5.17 5.17 0 0 1 6.438.677l12.394 10.833a7.5 7.5 0 0 0 12.352-6.754l-5.427-36.41 71.547 36.7a76.546 76.546 0 0 1 31.869 30.806 32.106 32.106 0 0 0-36.143 14.944L315.98 478.807a22.127 22.127 0 1 0 38.326 22.127l15.314-26.526V508.5a3.5 3.5 0 0 0 7 0v-46.216l22.885-39.637a11.454 11.454 0 0 1 9.898-5.715h.051l31.29.14h.074a16.91 16.91 0 0 0 3.242-.318V508.5a3.5 3.5 0 0 0 7 0v-94.871a16.95 16.95 0 0 0 4.474-5.053l31.223-54.08 21.323-36.933a29.262 29.262 0 0 0-10.698-39.926ZM332.56 145.697a1.993 1.993 0 0 0 0-.795v-24.284a16.131 16.131 0 0 1 12.363 18.696l-1.235 6.638a14.873 14.873 0 0 1-11.128 11.728ZM181.31 157.68a14.873 14.873 0 0 1-11.128-11.728l-1.235-6.638a16.132 16.132 0 0 1 12.363-18.696Zm144.25-6.798-18.421 31.531a15.655 15.655 0 0 1-21.145 5.701l-9.673-5.475a17.777 17.777 0 0 0-5.251-1.966 15.392 15.392 0 0 0 .332-3.174v-4.027a3.5 3.5 0 0 0-7 0v4.027a8.402 8.402 0 0 1-16.804 0v-4.027a3.5 3.5 0 0 0-7 0v4.027a15.406 15.406 0 0 0 .3 3.015 17.774 17.774 0 0 0-6.173 2.121l-9.667 5.478a15.676 15.676 0 0 1-21.157-5.699l-15.591-26.681V148.8h.5a13.515 13.515 0 0 0 13.5-13.5V121.68a21.599 21.599 0 0 0 5.713-.45l29.35-6.317a92.374 92.374 0 0 1 39.13 0l29.35 6.317a21.518 21.518 0 0 0 4.543.484c.403 0 .803-.022 1.204-.044V135.3a13.515 13.515 0 0 0 13.5 13.5h.46ZM188.31 141.8V115.59a22.053 22.053 0 0 0 7 4.532V135.3a6.508 6.508 0 0 1-6.5 6.5Zm137.25 0h-.46a6.508 6.508 0 0 1-6.5-6.5v-15.202a22.068 22.068 0 0 0 6.96-4.491ZM186.72 34.69A27.722 27.722 0 0 1 214.41 7h85.05a27.722 27.722 0 0 1 27.69 27.69v49.43a12.412 12.412 0 0 0-1.051-.351c-15.004-4.123-43.726-11.065-67.511-11.237a228.494 228.494 0 0 0-71.533 10.95c-.115.036-.222.087-.335.127Zm-.7 58.302a5.165 5.165 0 0 1 3.175-2.846 220.9 220.9 0 0 1 69.342-10.614c22.985.166 51.033 6.955 65.706 10.987a5.261 5.261 0 0 1 3.368 2.828 5.17 5.17 0 0 1 .046 4.378l-3.664 8.208a14.902 14.902 0 0 1-16.668 8.455l-29.35-6.318a99.313 99.313 0 0 0-42.076 0l-29.348 6.318a14.899 14.899 0 0 1-16.67-8.455l-3.86-8.649a5.202 5.202 0 0 1-.001-4.292Zm2.29 93.568v-16.954l9.55 16.342a22.708 22.708 0 0 0 30.646 8.257l9.676-5.483a10.846 10.846 0 0 1 5.358-1.412h.597a15.38 15.38 0 0 0 23.705.022 10.838 10.838 0 0 1 5.023 1.394l9.679 5.48a22.69 22.69 0 0 0 30.639-8.26l12.377-21.187v21.801a57.784 57.784 0 0 1-16.472 40.562 3.49 3.49 0 0 0-.59.587 57.908 57.908 0 0 1-13.574 10.005c-.06.028-.118.06-.177.091a58.999 58.999 0 0 1-5.544 2.578l-31.33 12.61a2.506 2.506 0 0 1-1.866 0l-31.34-12.61a58.823 58.823 0 0 1-8.292-4.126c-.036-.02-.068-.046-.104-.064a57.852 57.852 0 0 1-11.233-8.813 3.467 3.467 0 0 0-.539-.558 57.786 57.786 0 0 1-16.19-40.262Zm22.188 93.071a12.084 12.084 0 0 0-14.722 1.364l-12.385 10.827a.452.452 0 0 1-.578.066.441.441 0 0 1-.252-.512l6.351-42.599A11.573 11.573 0 0 1 192 242.21l7.651-7.5a6.955 6.955 0 0 1 1.63-1.207 64.808 64.808 0 0 0 10.857 8.368l34.038 59.82ZM256 304.803l-32.666-57.41 30.052 12.09a9.433 9.433 0 0 0 7.1.004l27.627-11.12Zm73.187-12.915a.45.45 0 0 1-.574-.063l-12.387-10.828a12.09 12.09 0 0 0-14.727-1.364l-35.674 22.057 33.11-58.19a64.922 64.922 0 0 0 12.88-9.27c.181.149.36.307.535.48l7.649 7.498a11.575 11.575 0 0 1 3.089 6.568l6.35 42.6a.44.44 0 0 1-.251.512Zm127.137 101.319-28.033-16.186 11.002-19.056 28.033 16.185Zm14.503-25.12-31.065-17.935a3.5 3.5 0 0 0-4.782 1.282l-14.502 25.118a3.5 3.5 0 0 0 1.282 4.781l31.064 17.936-3.352 5.807a10.014 10.014 0 0 1-8.654 4.995h-.044l-31.289-.139h-.082a18.47 18.47 0 0 0-15.96 9.215l-45.2 78.287a15.127 15.127 0 1 1-26.2-15.127l82.228-142.423a24.923 24.923 0 0 1 15.233-11.69 25.237 25.237 0 0 1 6.534-.865 24.937 24.937 0 0 1 12.503 3.372l40.403 23.327Zm31.19-54.024-19.573 33.902-19.056-11.002 15.818-27.399a7.743 7.743 0 0 0-2.83-10.564l-27.548-15.904a.459.459 0 0 1-.167-.626 21.568 21.568 0 0 1 29.433-7.886l15.788 9.115a22.253 22.253 0 0 1 8.136 30.364ZM301.91 129.267a35.22 35.22 0 0 0-26.788 0 3.5 3.5 0 1 0 2.658 6.476 28.162 28.162 0 0 1 10.022-2.113 28.669 28.669 0 0 1 11.454 2.114 3.5 3.5 0 1 0 2.654-6.477ZM243.54 208.52a35.144 35.144 0 0 0 12.502 2.635c.303.008.604.012.905.012a35.092 35.092 0 0 0 13.381-2.647 3.5 3.5 0 1 0-2.654-6.477 28.705 28.705 0 0 1-11.454 2.114 28.167 28.167 0 0 1-10.022-2.113 3.5 3.5 0 1 0-2.658 6.476Zm-20.056-68.9a3.5 3.5 0 0 0-3.5 3.5v7.678a3.5 3.5 0 1 0 7 0v-7.678a3.5 3.5 0 0 0-3.5-3.5Zm65.032 0a3.5 3.5 0 0 0-3.5 3.5v7.678a3.5 3.5 0 1 0 7 0v-7.678a3.5 3.5 0 0 0-3.5-3.5Z"></path></svg>