<svg xmlns="http://www.w3.org/2000/svg" enable-background="new 0 0 512 512" viewBox="0 0 512 512" id="plumber"><linearGradient id="a" x1="52.036" x2="455.145" y1="-42.476" y2="360.633" gradientTransform="matrix(1 0 0 -1 0 512)" gradientUnits="userSpaceOnUse"><stop offset="0" stop-color="#ffae46"></stop><stop offset="1" stop-color="#fff050"></stop></linearGradient><path fill="url(#a)" d="M494.3,389.9c-15.8,18.3-39.5,27.2-62.6,24.4l-69.7,80.5c-14.8,17-40.5,19-57.7,4.1c-17-14.7-18.9-40.6-4.1-57.6l69.7-80.5c-6-22.7-0.4-47.3,15.3-65.4c13.2-15.3,32.3-24.4,52.5-24.9c7.2-0.4,13.7,3.7,16.7,10.2c3,6.2,2.1,13.2-2.1,18.6L439,319.1c-3.8,6.4-2.5,15.1,3.6,20.4c6.3,5.4,15.3,4.9,20.9,0.3l17.4-15.8c4.7-4.9,11.5-6.8,18.1-4.7c6.8,2.1,11.7,8,12.6,15.1C513.8,354.7,507.7,374.4,494.3,389.9z M402.3,140.6c0,6-4.9,11-11,11h-17.9v60.4c0,32.3-25.9,61.8-52.8,86.1v27.7c0,13.1,10.6,23.7,23.7,23.7c0.4,0,0.8,0,1.2,0.1l0.5,0.1c0.1,1.6,0.2,3.3,0.4,4.9l-59,68H126.8v-69.3l35-3.7c0.4-0.1,0.8-0.1,1.2-0.1c13.1,0,23.7-10.6,23.7-23.7v-27.7c-27-24.4-52.9-53.8-52.9-86.1v-60.4h-17.8c-6.1,0-11-4.9-11-11c0-6,4.9-11,11-11h7c2-50.7,32.9-94.1,76.8-114c0,1.9,0.3,3.8,0.7,5.7l16.3,73.1c1.3,5.8,7,9.6,13.1,8.3c5.9-1.3,9.7-7.2,8.3-13.1l-16.3-73.1c-0.8-3.3,0.1-6.6,2.1-9.3s5.2-4.1,8.6-4.1h42.1c3.3,0,6.5,1.5,8.6,4.1c2.1,2.6,2.9,6,2.1,9.3l-16.3,73.1c-1.3,5.9,2.4,11.8,8.3,13.1s11.8-2.4,13.1-8.3l16.3-73.1c0.4-1.9,0.7-3.8,0.7-5.7c43.9,19.8,74.8,63.2,76.8,114h7C397.4,129.6,402.3,134.5,402.3,140.6z M298.7,325.7V317c-0.8,0.7,3-2.5-8.1,6.7c-6.5,5.4-14.7,8.4-23.1,8.4h-27.8c-8.4,0-16.6-3-23.1-8.4c-2.5-2.1-2.8-2.4-8-6.7v8.8c0,18.3-10.9,34.1-26.5,41.4c48,29.9,95.2,29.9,143.3,0.1C309.6,359.9,298.7,344.1,298.7,325.7z M351.5,151.6H155.7v60.4c0,34.7,47.2,71.8,74.9,94.8c2.6,2.1,5.8,3.3,9.1,3.3h27.8c3.3,0,6.5-1.2,9.1-3.3c27.4-22.8,74.9-59.9,74.9-94.8L351.5,151.6L351.5,151.6z M506.8,495l-14.5-54.6c-1.5-5.6-3.3-11-5.6-16.2c-13.7,7.8-29.2,12.2-45.2,12.5l-8.2,9.4c2.9,4.1,5.3,8.6,7,13.4l17.2,49.3h38.7c3.5,0,6.6-1.6,8.7-4.3C507,501.8,507.7,498.3,506.8,495z M268.5,472.5c-0.7-9.7,0.8-19.3,4.4-28.1H121.7c-16.7,0-29.3,9.3-34.1,22.5l-14.1,41.9h209.9C274.7,498.7,269.5,486.1,268.5,472.5z M419.6,466.9c-0.4-1.2-0.9-2.3-1.4-3.3l-39.2,45.3h55.3L419.6,466.9z M104.8,424.4v-68.6c-43.5,8.8-78.5,41.4-89.9,84.5L0.3,495c-0.8,3.3-0.2,6.8,1.9,9.6c2.1,2.7,5.3,4.3,8.7,4.3h39.2l16.7-49.3C73.1,442.1,87.5,429.2,104.8,424.4z"></path></svg>