<svg xmlns="http://www.w3.org/2000/svg" enable-background="new 0 0 512 512" viewBox="0 0 512 512" id="plumber"><linearGradient id="a" x1="32.305" x2="425.446" y1="-28.111" y2="365.031" gradientTransform="matrix(1 0 0 -1 0 512)" gradientUnits="userSpaceOnUse"><stop offset="0" stop-color="#ffae46"></stop><stop offset=".19" stop-color="#ff9755"></stop><stop offset=".739" stop-color="#ff5a7d"></stop><stop offset="1" stop-color="#ff428d"></stop></linearGradient><path fill="url(#a)" d="M217.279,88.221c-41.599,0-82.506,10.026-119.359,29.226V89.554
			c0-34.133,22.986-64.213,55.947-73.173l49.492-13.44c9.174-2.506,18.826-2.506,27.947,0l49.44,13.44
			c32.906,8.96,55.947,39.04,55.947,73.173v27.84C299.839,98.247,258.879,88.221,217.279,88.221z M264.96,299.382
			c-14.693,7.236-30.969,11.108-47.661,11.108c-17.006,0-33.205-4.007-47.646-11.153v23.78c5.671,3.372,3.883,3.109,38.709,37.451
			l-29.334,15.021c-3.182,1.635-7.14,0.662-9.203-2.245l-32.547-45.791c-1.937-2.724-0.19-6.507,3.136-6.807l13.713-1.234
			c2.846-0.263,3.496,0.004,4.86,0.137v-26.461c-25.965-16.767-44.521-44.35-48.687-76.849l-1.317-10.281
			c-12.124-2.234-21.338-12.864-21.338-25.599c0-7.6,3.324-14.388,8.53-19.158c-7.555-3.514-13.692-7.934-13.187-16.227
			c0.32-4.426,2.774-8.48,6.613-10.773c38.613-23.147,82.773-35.413,127.679-35.413c44.96,0,89.173,12.266,127.786,35.413
			c3.84,2.293,6.293,6.347,6.613,10.773c0.619,8.247-5.68,12.813-13.252,16.215c5.2,4.771,8.523,11.563,8.523,19.169
			c0,12.735-9.187,23.36-21.276,25.599l-1.322,10.286c-3.364,26.031-16.078,49.921-35.802,67.271
			c-4.061,3.585-8.416,6.749-12.922,9.652v26.29c1.608-0.157,3.236-0.197,4.875-0.046l13.713,1.234
			c3.329,0.301,5.069,4.093,3.136,6.812l-32.542,45.786c-2.073,2.906-6.026,3.88-9.203,2.255l-29.343-15.031
			c34.589-34.176,33.534-34.442,38.698-37.511v-23.674H264.96z M281.496,275.608c17.787-15.64,29.244-37.172,32.271-60.63
			l1.865-14.505c0.344-2.656,2.609-4.651,5.292-4.651c8.469,0,15.359-6.89,15.359-15.364c0-8.5-6.89-15.412-15.359-15.412
			c-3.19,0-10.693-1.354-15.805-3.76c-55.786-26.4-119.84-26.4-175.626,0c-5.251,2.471-11.542,3.76-15.767,3.76
			c-8.646,0-15.417,6.771-15.417,15.412c0,8.474,6.917,15.364,15.417,15.364c2.682,0,4.948,1.995,5.292,4.651l1.865,14.505
			c6.198,48.369,47.651,84.843,96.416,84.843C241.006,299.822,263.803,291.223,281.496,275.608z M161.132,379.525l-32.552-45.796
			c-2.88-4.053-3.444-9.06-1.796-13.665C55.28,329.823,0,391.25,0,465.393v40.213c0,2.933,2.4,5.333,5.333,5.333h206.643V370.695
			l-28.089,14.387C175.953,389.146,166.2,386.648,161.132,379.525z M425.118,489.126c-1.386-1.813-3.893-2.933-6.56-2.933h-55.84
			c-2.667,0-5.174,1.12-6.56,2.88c-10.397,13.412-26.284,21.866-44.48,21.866h117.546c2.933,0,5.333-2.4,5.333-5.333v-6.933
			C431.091,495.899,427.891,492.699,425.118,489.126z M311.678,510.939h-89.013V370.672l28.106,14.4
			c7.945,4.138,17.749,1.521,22.72-5.546l32.533-45.813c2.881-4.054,3.467-9.013,1.813-13.653
			c55.627,7.627,101.386,46.506,118.986,98.292c-0.587,0.587-1.067,1.173-1.547,1.813c-1.493,1.92-4,3.093-6.719,3.093h-55.84
			c-2.667,0-5.226-1.173-6.774-3.146c-12.753-16.226-32.653-23.778-52-21.013c-19.413,2.613-36.266,15.627-44.053,33.973
			c-2.133,5.013-1.547,10.666,1.44,15.094c2.187,3.307,5.44,5.6,9.174,6.56c-3.68,1.014-6.987,3.36-9.28,6.774
			c-2.881,4.48-3.414,10.027-1.386,14.88C268.639,497.392,288.959,510.939,311.678,510.939z M241.919,480.059
			c0-2.933-2.4-5.333-5.333-5.333h-4.32c-2.987,0-5.333,2.4-5.333,5.333c0,2.987,2.346,5.333,5.333,5.333h4.32
			C239.519,485.392,241.919,483.046,241.919,480.059z M241.919,457.34c0-2.933-2.4-5.333-5.333-5.333h-4.32
			c-2.987,0-5.333,2.4-5.333,5.333c0,2.987,2.346,5.333,5.333,5.333h4.32C239.519,462.673,241.919,460.326,241.919,457.34z
			 M241.919,434.619c0-2.933-2.4-5.333-5.333-5.333h-4.32c-2.987,0-5.333,2.4-5.333,5.333c0,2.933,2.346,5.333,5.333,5.333h4.32
			C239.519,439.952,241.919,437.553,241.919,434.619z M241.919,411.899c0-2.933-2.4-5.333-5.333-5.333h-4.32
			c-2.987,0-5.333,2.4-5.333,5.333c0,2.933,2.346,5.333,5.333,5.333h4.32C239.519,417.232,241.919,414.832,241.919,411.899z
			 M241.919,389.18c0-2.933-2.4-5.333-5.333-5.333h-4.32c-2.987,0-5.333,2.4-5.333,5.333c0,2.987,2.346,5.333,5.333,5.333h4.32
			C239.519,394.513,241.919,392.166,241.919,389.18z M506.664,464.86h-19.733c-5.601,0-10.133-4.533-10.133-10.133
			c0-5.546,4.533-10.133,10.133-10.133h19.733c3.802,0,6.402-3.847,4.907-7.413c-6.293-14.827-19.947-25.386-35.68-27.52
			c-16.32-2.239-32.053,4.16-42.187,17.066c-3.52,4.533-9.173,7.2-15.146,7.2h-55.84c-5.973,0-11.626-2.667-15.146-7.2
			c-10.133-12.907-25.867-19.307-42.187-17.066c-15.734,2.133-29.386,12.694-35.68,27.52c-1.494,3.562,1.1,7.413,4.907,7.413h19.733
			c5.6,0,10.133,4.587,10.133,10.133c0,5.6-4.533,10.133-10.133,10.133h-19.733c-3.744,0-6.375,3.914-4.907,7.413
			c7.093,17.013,23.573,28,41.973,28c14.413,0,27.392-6.616,36.053-17.707c3.414-4.426,9.013-7.039,14.987-7.039h55.84
			c5.973,0,11.573,2.613,14.987,7.039c8.747,11.254,21.866,17.707,36.053,17.707c18.399,0,34.88-10.986,41.973-28
			C513.094,468.641,510.296,464.86,506.664,464.86z M244.699,245.828c-15.427,14.697-39.594,14.697-55.021,0
			c-2.125-2.026-5.5-1.958-7.536,0.182c-2.032,2.13-1.953,5.505,0.182,7.536c19.545,18.629,50.176,18.636,69.729,0
			c2.135-2.032,2.214-5.406,0.182-7.536C250.205,243.864,246.829,243.796,244.699,245.828z M246.131,177.817
			c-1.135,2.719,0.151,5.844,2.869,6.974c2.714,1.14,5.838-0.146,6.974-2.869c1.75-4.198,7.684-4.152,9.412-0.005
			c1.147,2.774,4.323,3.991,6.968,2.875c2.719-1.13,4.011-4.25,2.875-6.968C269.898,165.001,251.541,164.843,246.131,177.817z
			 M185.606,184.792c2.719-1.13,4.011-4.25,2.875-6.968c-5.332-12.821-23.69-12.98-29.099-0.005
			c-1.135,2.719,0.151,5.844,2.869,6.974c2.714,1.14,5.838-0.146,6.974-2.869c1.75-4.198,7.684-4.152,9.412-0.005
			C179.785,184.69,182.96,185.907,185.606,184.792z"></path></svg>