<svg xmlns="http://www.w3.org/2000/svg" enable-background="new 0 0 512 512" viewBox="0 0 512 512" id="Plumber"><path fill="#fe9526" d="M228,499.7c-80.9-10.3-144-91.5-133.9-172.4c4.7-38.1,23.1-73.4,41.2-107.7c19.4-36.9,38.9-73.8,58.3-110.7c15.2-28.8,35.4-61.3,67.7-65.3c20.3-2.5,40.3,7.8,53.9,22.6s22,33.5,29.8,52.1c27.8,66.8,83.9,176.2,68.2,252.2C397,448.1,304.3,509.4,228,499.7z" class="colorefe17b svgShape"></path><path d="M480.9,446.9c-3.3-12.3-8.6-23.7-15.5-33.8c6.5-3.8,12.4-8.5,17.5-14.3l0,0c12.7-14.7,18.5-33.4,16.4-52.9c-1.7-14.3-19.2-20.3-29.2-9.9l-16.6,15c-5.4,4.5-14.2,5-19.9-0.3c-5.7-5-7.1-13.3-3.4-19.4l12.8-18.9c9-11.5,0.2-28-13.9-27.4c-19.2,0.6-37.4,9.2-50,23.7c-13,15-18.7,34.6-16.2,53.8l-21.7-2.3c-0.4,0-0.7-0.1-1.1-0.1c-12.4,0-22.5-10.1-22.5-22.5v-28.4c26.7-23.9,52.6-52.9,52.6-84.8v-59.1h0.3h17.4c5.8,0,10.4-4.7,10.4-10.4s-4.7-10.4-10.4-10.4h-7.1c-1.9-49.5-32-91.8-74.8-111.1C306.9,15.3,292.6,0,274.1,0h-41c-18.8,0-32.6,15.8-31.7,33.4c-42.8,19.3-72.9,61.6-74.8,111.1h-7.2c-5.8,0-10.4,4.7-10.4,10.4s4.7,10.4,10.4,10.4h17.4h0.2v59.1c0,32,26.1,61,52.8,84.9v28.3c0,12.4-10.1,22.5-22.5,22.5c-0.4,0-0.7,0-1.1,0.1c-33.8,3.5-34.5,3.6-49.3,5.2c-43.7,6.8-79.2,38.7-90.5,81.4l-13.8,52c-1.5,5.6,1.8,11.3,7.4,12.8c5.6,1.5,11.3-1.8,12.8-7.4l13.8-52c9-33.9,36.8-59.4,70.8-65.6v38.2c-15.8,4.4-28.9,16.3-34.6,32.2l-14.6,41c-1.9,5.4,0.9,11.4,6.3,13.3c5.4,1.9,11.4-0.9,13.3-6.3l14.6-41c4.3-12.1,15.9-20.3,28.7-20.3h170.1l-3.3,3.8c-14,16.2-12.3,40.8,3.9,54.9c16.3,14.1,40.9,12.2,54.9-3.9l40.1-46.3c3.4,3.2,6.1,7.2,7.7,11.8l14.6,41c1.9,5.4,7.9,8.3,13.3,6.3c5.4-1.9,8.3-7.9,6.3-13.3l-14.6-41c-2.9-8.1-7.7-15-13.7-20.6l12.6-14.5c7.4,0.9,14.7,0.4,21.9-1.1c7,9.2,12.4,19.8,15.5,31.4l13.8,52c1.5,5.5,7.2,8.9,12.8,7.4c5.6-1.5,8.9-7.2,7.4-12.8L480.9,446.9z M205.6,54.6l12.3,55.3c1.3,5.6,6.9,9.2,12.5,7.9c5.6-1.3,9.2-6.8,7.9-12.5l-15.9-71.2c-1.5-6.9,3.7-13.3,10.6-13.3h41c7,0,12.3,6.7,10.6,13.3L269,105.4c-1.3,5.6,2.3,11.2,7.9,12.5s11.2-2.3,12.5-7.9l12.3-55.3c33.2,16.9,56.4,50.7,58.2,90c-120.9,0-91.8,0-212.4,0C149.2,105.3,172.4,71.5,205.6,54.6z M158,224.5v-59.1h191.2v59.1c0,33.8-45.5,69.6-73.1,92.5c-2.5,2.1-5.7,3.3-9,3.3H240c-3.2,0-6.4-1.2-9-3.3C204.4,294.9,158,258.5,158,224.5z M217.7,333.1c6.3,5.2,14.2,8.1,22.4,8.1h27.1c8.1,0,16.1-2.9,22.4-8.1c0.7-0.6-2.6,2.2,7.1-5.9v10.5c0,15.2,7.9,28.6,19.7,36.3c-42,25.1-83.3,25.1-125.3,0c11.9-7.8,19.7-21.1,19.7-36.3v-10.4C211.5,327.9,208.3,325.2,217.7,333.1z M138.4,422.9v-38.7l26.1-2.7c29.6,21.6,59.4,32.5,89.1,32.5c29.8,0,59.6-10.9,89.1-32.5l11.5,1.2l-34.8,40.2H138.4L138.4,422.9z M421.4,400.5c-3.7-0.8-7.6,0.5-10.1,3.4l-70.2,81c-15.6,18-42.7-5.7-27.2-23.6l70.1-81c2.5-2.9,3.2-6.9,1.9-10.4c-5.9-16.2-2.5-34.3,8.8-47.4c7.1-8.2,16.3-13.5,26.7-15.6l-8.9,13.3c-9.2,15.2-6.1,34.7,7.3,46.4c13.2,11.4,32.8,12.2,47.3,0.3l11.5-10.4C478,367.1,474,377,467,385.2C455.7,398.1,438.2,404.1,421.4,400.5z" fill="#595bd4" class="color000000 svgShape"></path></svg>